# This file was created with Minddesk Qubicle 3.0
# Get Qubicle at www.getqubicle.com

mtllib Matrix.mtl

vn 0.0 0.0 1.0
vn 0.0 0.0 -1.0
vn -1.0 0.0 0.0
vn 1.0 0.0 0.0
vn 0.0 1.0 0.0
vn 0.0 -1.0 0.0

v -78.00000 8.00000 81.00000
v -78.00000 1.00000 81.00000
v -88.00000 1.00000 81.00000
v -88.00000 8.00000 81.00000
v -78.00000 9.00000 96.00000
v -78.00000 1.00000 96.00000
v -88.00000 1.00000 96.00000
v -88.00000 9.00000 96.00000
v -88.00000 8.00000 80.00000
v -88.00000 1.00000 80.00000
v -89.00000 1.00000 80.00000
v -89.00000 8.00000 80.00000
v -77.00000 8.00000 80.00000
v -77.00000 1.00000 80.00000
v -78.00000 1.00000 80.00000
v -78.00000 8.00000 80.00000
v -89.00000 8.00000 81.00000
v -89.00000 0.00000 81.00000
v -90.00000 0.00000 81.00000
v -90.00000 8.00000 81.00000
v -76.00000 8.00000 81.00000
v -76.00000 0.00000 81.00000
v -77.00000 0.00000 81.00000
v -77.00000 8.00000 81.00000
v -89.00000 8.00000 85.00000
v -89.00000 1.00000 85.00000
v -90.00000 1.00000 85.00000
v -90.00000 8.00000 85.00000
v -76.00000 8.00000 85.00000
v -76.00000 1.00000 85.00000
v -77.00000 1.00000 85.00000
v -77.00000 8.00000 85.00000
v -89.00000 8.00000 92.00000
v -89.00000 1.00000 92.00000
v -90.00000 1.00000 92.00000
v -90.00000 8.00000 92.00000
v -76.00000 8.00000 92.00000
v -76.00000 1.00000 92.00000
v -77.00000 1.00000 92.00000
v -77.00000 8.00000 92.00000
v -89.00000 8.00000 96.00000
v -89.00000 1.00000 96.00000
v -90.00000 1.00000 96.00000
v -90.00000 8.00000 96.00000
v -76.00000 8.00000 96.00000
v -76.00000 1.00000 96.00000
v -77.00000 1.00000 96.00000
v -77.00000 8.00000 96.00000
v -84.00000 9.00000 79.00000
v -84.00000 7.00000 79.00000
v -85.00000 7.00000 79.00000
v -85.00000 9.00000 79.00000
v -81.00000 9.00000 79.00000
v -81.00000 7.00000 79.00000
v -82.00000 7.00000 79.00000
v -82.00000 9.00000 79.00000
v -77.00000 0.00000 80.00000
v -89.00000 0.00000 80.00000
v -85.00000 9.00000 80.00000
v -85.00000 8.00000 80.00000
v -90.00000 8.00000 80.00000
v -90.00000 9.00000 80.00000
v -76.00000 9.00000 80.00000
v -76.00000 8.00000 80.00000
v -81.00000 8.00000 80.00000
v -81.00000 9.00000 80.00000
v -81.00000 6.00000 79.00000
v -85.00000 6.00000 79.00000
v -81.00000 7.00000 98.00000
v -81.00000 6.00000 98.00000
v -85.00000 6.00000 98.00000
v -85.00000 7.00000 98.00000
v -82.00000 9.00000 80.00000
v -82.00000 8.00000 80.00000
v -84.00000 8.00000 80.00000
v -84.00000 9.00000 80.00000
v -76.00000 9.00000 90.00000
v -76.00000 8.00000 90.00000
v -78.00000 8.00000 90.00000
v -78.00000 9.00000 90.00000
v -76.00000 8.00000 87.00000
v -76.00000 7.00000 87.00000
v -77.00000 7.00000 87.00000
v -77.00000 8.00000 87.00000
v -76.00000 7.00000 88.00000
v -76.00000 6.00000 88.00000
v -77.00000 6.00000 88.00000
v -77.00000 7.00000 88.00000
v -84.00000 8.00000 98.00000
v -84.00000 7.00000 98.00000
v -85.00000 8.00000 98.00000
v -81.00000 8.00000 98.00000
v -82.00000 7.00000 98.00000
v -82.00000 8.00000 98.00000
v -88.00000 9.00000 82.00000
v -88.00000 1.00000 82.00000
v -78.00000 1.00000 82.00000
v -78.00000 9.00000 82.00000
v -88.00000 8.00000 97.00000
v -88.00000 1.00000 97.00000
v -78.00000 1.00000 97.00000
v -78.00000 8.00000 97.00000
v -90.00000 8.00000 82.00000
v -90.00000 1.00000 82.00000
v -89.00000 1.00000 82.00000
v -89.00000 8.00000 82.00000
v -77.00000 8.00000 82.00000
v -77.00000 1.00000 82.00000
v -76.00000 1.00000 82.00000
v -76.00000 8.00000 82.00000
v -90.00000 8.00000 86.00000
v -90.00000 1.00000 86.00000
v -89.00000 1.00000 86.00000
v -89.00000 8.00000 86.00000
v -77.00000 8.00000 86.00000
v -77.00000 1.00000 86.00000
v -76.00000 1.00000 86.00000
v -76.00000 8.00000 86.00000
v -90.00000 8.00000 93.00000
v -90.00000 1.00000 93.00000
v -89.00000 1.00000 93.00000
v -89.00000 8.00000 93.00000
v -77.00000 8.00000 93.00000
v -77.00000 1.00000 93.00000
v -76.00000 1.00000 93.00000
v -76.00000 8.00000 93.00000
v -90.00000 8.00000 97.00000
v -90.00000 0.00000 97.00000
v -89.00000 0.00000 97.00000
v -89.00000 8.00000 97.00000
v -77.00000 8.00000 97.00000
v -77.00000 0.00000 97.00000
v -76.00000 0.00000 97.00000
v -76.00000 8.00000 97.00000
v -89.00000 8.00000 98.00000
v -89.00000 1.00000 98.00000
v -88.00000 1.00000 98.00000
v -88.00000 8.00000 98.00000
v -78.00000 8.00000 98.00000
v -78.00000 1.00000 98.00000
v -77.00000 1.00000 98.00000
v -77.00000 8.00000 98.00000
v -85.00000 9.00000 99.00000
v -85.00000 7.00000 99.00000
v -84.00000 7.00000 99.00000
v -84.00000 9.00000 99.00000
v -82.00000 9.00000 99.00000
v -82.00000 7.00000 99.00000
v -81.00000 7.00000 99.00000
v -81.00000 9.00000 99.00000
v -89.00000 0.00000 98.00000
v -77.00000 0.00000 98.00000
v -90.00000 9.00000 98.00000
v -90.00000 8.00000 98.00000
v -85.00000 9.00000 98.00000
v -81.00000 9.00000 98.00000
v -76.00000 8.00000 98.00000
v -76.00000 9.00000 98.00000
v -85.00000 7.00000 80.00000
v -85.00000 6.00000 80.00000
v -81.00000 6.00000 80.00000
v -81.00000 7.00000 80.00000
v -85.00000 6.00000 99.00000
v -81.00000 6.00000 99.00000
v -78.00000 9.00000 88.00000
v -78.00000 8.00000 88.00000
v -76.00000 8.00000 88.00000
v -76.00000 9.00000 88.00000
v -84.00000 9.00000 98.00000
v -82.00000 9.00000 98.00000
v -84.00000 7.00000 80.00000
v -82.00000 7.00000 80.00000
v -77.00000 7.00000 90.00000
v -77.00000 6.00000 90.00000
v -76.00000 6.00000 90.00000
v -76.00000 7.00000 90.00000
v -77.00000 8.00000 91.00000
v -77.00000 7.00000 91.00000
v -76.00000 7.00000 91.00000
v -76.00000 8.00000 91.00000
v -78.00000 8.00000 82.00000
v -78.00000 8.00000 96.00000
v -90.00000 1.00000 81.00000
v -90.00000 1.00000 97.00000
v -77.00000 6.00000 92.00000
v -77.00000 6.00000 86.00000
v -76.00000 1.00000 81.00000
v -76.00000 1.00000 97.00000
v -77.00000 7.00000 86.00000
v -77.00000 7.00000 92.00000
v -90.00000 9.00000 82.00000
v -90.00000 9.00000 96.00000
v -76.00000 9.00000 82.00000
v -76.00000 9.00000 96.00000

vt 0.00781 0.26563
vt 0.00781 0.01563
vt 0.11719 0.01563
vt 0.11719 0.26563
vt 0.13281 0.23438
vt 0.13281 0.01563
vt 0.21094 0.01563
vt 0.21094 0.23438
vt 0.22656 0.23438
vt 0.22656 0.01563
vt 0.24219 0.01563
vt 0.24219 0.23438
vt 0.25781 0.14063
vt 0.25781 0.01563
vt 0.36719 0.01563
vt 0.36719 0.14063
vt 0.38281 0.14063
vt 0.38281 0.01563
vt 0.46094 0.01563
vt 0.46094 0.14063
vt 0.47656 0.14063
vt 0.47656 0.01563
vt 0.55469 0.01563
vt 0.55469 0.14063
vt 0.57031 0.14063
vt 0.57031 0.01563
vt 0.57813 0.01563
vt 0.57813 0.14063
vt 0.59375 0.14063
vt 0.59375 0.01563
vt 0.60156 0.01563
vt 0.60156 0.14063
vt 0.61719 0.14063
vt 0.61719 0.01563
vt 0.62500 0.01563
vt 0.62500 0.14063
vt 0.64063 0.14063
vt 0.64063 0.01563
vt 0.64844 0.01563
vt 0.64844 0.14063
vt 0.66406 0.14063
vt 0.66406 0.01563
vt 0.67188 0.01563
vt 0.67188 0.14063
vt 0.68750 0.14063
vt 0.68750 0.01563
vt 0.69531 0.01563
vt 0.69531 0.14063
vt 0.71094 0.14063
vt 0.71094 0.01563
vt 0.71875 0.01563
vt 0.71875 0.14063
vt 0.73438 0.14063
vt 0.73438 0.01563
vt 0.74219 0.01563
vt 0.74219 0.14063
vt 0.75781 0.12500
vt 0.75781 0.01563
vt 0.86719 0.01563
vt 0.86719 0.12500
vt 0.88281 0.12500
vt 0.88281 0.01563
vt 0.96094 0.01563
vt 0.96094 0.12500
vt 0.00781 0.40625
vt 0.00781 0.29688
vt 0.08594 0.29688
vt 0.08594 0.40625
vt 0.10156 0.40625
vt 0.10156 0.29688
vt 0.14844 0.29688
vt 0.14844 0.40625
vt 0.16406 0.40625
vt 0.16406 0.29688
vt 0.18750 0.29688
vt 0.18750 0.40625
vt 0.20313 0.40625
vt 0.20313 0.29688
vt 0.22656 0.29688
vt 0.22656 0.40625
vt 0.24219 0.40625
vt 0.24219 0.29688
vt 0.26563 0.29688
vt 0.26563 0.40625
vt 0.28125 0.40625
vt 0.28125 0.29688
vt 0.30469 0.29688
vt 0.30469 0.40625
vt 0.97656 0.12500
vt 0.97656 0.01563
vt 0.98438 0.01563
vt 0.98438 0.12500
vt 0.32031 0.40625
vt 0.32031 0.29688
vt 0.32813 0.29688
vt 0.32813 0.40625
vt 0.34375 0.40625
vt 0.34375 0.29688
vt 0.35156 0.29688
vt 0.35156 0.40625
vt 0.36719 0.40625
vt 0.36719 0.29688
vt 0.37500 0.29688
vt 0.37500 0.40625
vt 0.39063 0.40625
vt 0.39063 0.29688
vt 0.39844 0.29688
vt 0.39844 0.40625
vt 0.41406 0.40625
vt 0.41406 0.29688
vt 0.42188 0.29688
vt 0.42188 0.40625
vt 0.43750 0.40625
vt 0.43750 0.29688
vt 0.44531 0.29688
vt 0.44531 0.40625
vt 0.46094 0.40625
vt 0.46094 0.29688
vt 0.46875 0.29688
vt 0.46875 0.40625
vt 0.48438 0.40625
vt 0.48438 0.29688
vt 0.49219 0.29688
vt 0.49219 0.40625
vt 0.50781 0.40625
vt 0.50781 0.29688
vt 0.51563 0.29688
vt 0.51563 0.40625
vt 0.53125 0.40625
vt 0.53125 0.29688
vt 0.53906 0.29688
vt 0.53906 0.40625
vt 0.55469 0.40625
vt 0.55469 0.29688
vt 0.56250 0.29688
vt 0.56250 0.40625
vt 0.57813 0.40625
vt 0.57813 0.29688
vt 0.58594 0.29688
vt 0.58594 0.40625
vt 0.60156 0.40625
vt 0.60156 0.29688
vt 0.60938 0.29688
vt 0.60938 0.40625
vt 0.62500 0.40625
vt 0.62500 0.29688
vt 0.63281 0.29688
vt 0.63281 0.40625
vt 0.64844 0.40625
vt 0.64844 0.29688
vt 0.65625 0.29688
vt 0.65625 0.40625
vt 0.67188 0.40625
vt 0.67188 0.29688
vt 0.67969 0.29688
vt 0.67969 0.40625
vt 0.69531 0.40625
vt 0.69531 0.29688
vt 0.70313 0.29688
vt 0.70313 0.40625
vt 0.71875 0.40625
vt 0.71875 0.29688
vt 0.72656 0.29688
vt 0.72656 0.40625
vt 0.74219 0.40625
vt 0.74219 0.29688
vt 0.75000 0.29688
vt 0.75000 0.40625
vt 0.76563 0.40625
vt 0.76563 0.29688
vt 0.77344 0.29688
vt 0.77344 0.40625
vt 0.78906 0.40625
vt 0.78906 0.29688
vt 0.79688 0.29688
vt 0.79688 0.40625
vt 0.81250 0.40625
vt 0.81250 0.29688
vt 0.82031 0.29688
vt 0.82031 0.40625
vt 0.83594 0.40625
vt 0.83594 0.29688
vt 0.84375 0.29688
vt 0.84375 0.40625
vt 0.85938 0.40625
vt 0.85938 0.29688
vt 0.86719 0.29688
vt 0.86719 0.40625
vt 0.88281 0.40625
vt 0.88281 0.29688
vt 0.89063 0.29688
vt 0.89063 0.40625
vt 0.90625 0.40625
vt 0.90625 0.29688
vt 0.91406 0.29688
vt 0.91406 0.40625
vt 0.92969 0.40625
vt 0.92969 0.29688
vt 0.93750 0.29688
vt 0.93750 0.40625
vt 0.95313 0.39063
vt 0.95313 0.29688
vt 0.96875 0.29688
vt 0.96875 0.39063
vt 0.00781 0.53125
vt 0.00781 0.43750
vt 0.02344 0.43750
vt 0.02344 0.53125
vt 0.98438 0.39063
vt 0.98438 0.29688
vt 0.99219 0.29688
vt 0.99219 0.39063
vt 0.03906 0.53125
vt 0.03906 0.43750
vt 0.04688 0.43750
vt 0.04688 0.53125
vt 0.06250 0.53125
vt 0.06250 0.43750
vt 0.07031 0.43750
vt 0.07031 0.53125
vt 0.08594 0.51563
vt 0.08594 0.43750
vt 0.13281 0.43750
vt 0.13281 0.51563
vt 0.25781 0.21875
vt 0.25781 0.17188
vt 0.26563 0.17188
vt 0.26563 0.21875
vt 0.28125 0.21875
vt 0.28125 0.17188
vt 0.28906 0.17188
vt 0.28906 0.21875
vt 0.30469 0.21875
vt 0.30469 0.17188
vt 0.31250 0.17188
vt 0.31250 0.21875
vt 0.32813 0.21875
vt 0.32813 0.17188
vt 0.33594 0.17188
vt 0.33594 0.21875
vt 0.35156 0.21875
vt 0.35156 0.17188
vt 0.35938 0.17188
vt 0.35938 0.21875
vt 0.37500 0.21875
vt 0.37500 0.17188
vt 0.38281 0.17188
vt 0.38281 0.21875
vt 0.39844 0.21875
vt 0.39844 0.17188
vt 0.40625 0.17188
vt 0.40625 0.21875
vt 0.42188 0.21875
vt 0.42188 0.17188
vt 0.42969 0.17188
vt 0.42969 0.21875
vt 0.44531 0.21875
vt 0.44531 0.17188
vt 0.45313 0.17188
vt 0.45313 0.21875
vt 0.46875 0.21875
vt 0.46875 0.17188
vt 0.47656 0.17188
vt 0.47656 0.21875
vt 0.49219 0.21875
vt 0.49219 0.17188
vt 0.50000 0.17188
vt 0.50000 0.21875
vt 0.51563 0.21875
vt 0.51563 0.17188
vt 0.52344 0.17188
vt 0.52344 0.21875
vt 0.53906 0.20313
vt 0.53906 0.17188
vt 0.64844 0.17188
vt 0.64844 0.20313
vt 0.66406 0.20313
vt 0.66406 0.17188
vt 0.77344 0.17188
vt 0.77344 0.20313
vt 0.78906 0.20313
vt 0.78906 0.17188
vt 0.80469 0.17188
vt 0.80469 0.20313
vt 0.82031 0.20313
vt 0.82031 0.17188
vt 0.82813 0.17188
vt 0.82813 0.20313
vt 0.84375 0.20313
vt 0.84375 0.17188
vt 0.85156 0.17188
vt 0.85156 0.20313
vt 0.86719 0.20313
vt 0.86719 0.17188
vt 0.87500 0.17188
vt 0.87500 0.20313
vt 0.89063 0.20313
vt 0.89063 0.17188
vt 0.89844 0.17188
vt 0.89844 0.20313
vt 0.91406 0.20313
vt 0.91406 0.17188
vt 0.92188 0.17188
vt 0.92188 0.20313
vt 0.93750 0.20313
vt 0.93750 0.17188
vt 0.94531 0.17188
vt 0.94531 0.20313
vt 0.96094 0.20313
vt 0.96094 0.17188
vt 0.96875 0.17188
vt 0.96875 0.20313
vt 0.98438 0.20313
vt 0.98438 0.17188
vt 0.99219 0.17188
vt 0.99219 0.20313
vt 0.14844 0.46875
vt 0.14844 0.43750
vt 0.15625 0.43750
vt 0.15625 0.46875
vt 0.17188 0.45313
vt 0.17188 0.43750
vt 0.31250 0.43750
vt 0.31250 0.45313
vt 0.32813 0.45313
vt 0.32813 0.43750
vt 0.45313 0.43750
vt 0.45313 0.45313
vt 0.46875 0.45313
vt 0.46875 0.43750
vt 0.59375 0.43750
vt 0.59375 0.45313
vt 0.60938 0.45313
vt 0.60938 0.43750
vt 0.70313 0.43750
vt 0.70313 0.45313
vt 0.71875 0.45313
vt 0.71875 0.43750
vt 0.81250 0.43750
vt 0.81250 0.45313
vt 0.82813 0.45313
vt 0.82813 0.43750
vt 0.92188 0.43750
vt 0.92188 0.45313
vt 0.14844 0.51563
vt 0.14844 0.50000
vt 0.24219 0.50000
vt 0.24219 0.51563
vt 0.25781 0.51563
vt 0.25781 0.50000
vt 0.33594 0.50000
vt 0.33594 0.51563
vt 0.35156 0.51563
vt 0.35156 0.50000
vt 0.42969 0.50000
vt 0.42969 0.51563
vt 0.44531 0.51563
vt 0.44531 0.50000
vt 0.52344 0.50000
vt 0.52344 0.51563
vt 0.53906 0.51563
vt 0.53906 0.50000
vt 0.61719 0.50000
vt 0.61719 0.51563
vt 0.63281 0.51563
vt 0.63281 0.50000
vt 0.69531 0.50000
vt 0.69531 0.51563
vt 0.71094 0.51563
vt 0.71094 0.50000
vt 0.77344 0.50000
vt 0.77344 0.51563
vt 0.93750 0.45313
vt 0.93750 0.43750
vt 0.98438 0.43750
vt 0.98438 0.45313
vt 0.78906 0.51563
vt 0.78906 0.50000
vt 0.83594 0.50000
vt 0.83594 0.51563
vt 0.85156 0.51563
vt 0.85156 0.50000
vt 0.89063 0.50000
vt 0.89063 0.51563
vt 0.90625 0.51563
vt 0.90625 0.50000
vt 0.94531 0.50000
vt 0.94531 0.51563
vt 0.00781 0.57813
vt 0.00781 0.56250
vt 0.04688 0.56250
vt 0.04688 0.57813
vt 0.06250 0.57813
vt 0.06250 0.56250
vt 0.10156 0.56250
vt 0.10156 0.57813
vt 0.96094 0.51563
vt 0.96094 0.50000
vt 0.99219 0.50000
vt 0.99219 0.51563
vt 0.11719 0.57813
vt 0.11719 0.56250
vt 0.14844 0.56250
vt 0.14844 0.57813
vt 0.16406 0.57813
vt 0.16406 0.56250
vt 0.19531 0.56250
vt 0.19531 0.57813
vt 0.21094 0.57813
vt 0.21094 0.56250
vt 0.24219 0.56250
vt 0.24219 0.57813
vt 0.25781 0.57813
vt 0.25781 0.56250
vt 0.28906 0.56250
vt 0.28906 0.57813
vt 0.30469 0.57813
vt 0.30469 0.56250
vt 0.33594 0.56250
vt 0.33594 0.57813
vt 0.35156 0.57813
vt 0.35156 0.56250
vt 0.38281 0.56250
vt 0.38281 0.57813
vt 0.39844 0.57813
vt 0.39844 0.56250
vt 0.41406 0.56250
vt 0.41406 0.57813
vt 0.42969 0.57813
vt 0.42969 0.56250
vt 0.44531 0.56250
vt 0.44531 0.57813
vt 0.46094 0.57813
vt 0.46094 0.56250
vt 0.47656 0.56250
vt 0.47656 0.57813
vt 0.49219 0.57813
vt 0.49219 0.56250
vt 0.50781 0.56250
vt 0.50781 0.57813
vt 0.52344 0.57813
vt 0.52344 0.56250
vt 0.53906 0.56250
vt 0.53906 0.57813
vt 0.55469 0.57813
vt 0.55469 0.56250
vt 0.57031 0.56250
vt 0.57031 0.57813
vt 0.58594 0.57813
vt 0.58594 0.56250
vt 0.60156 0.56250
vt 0.60156 0.57813
vt 0.61719 0.57813
vt 0.61719 0.56250
vt 0.63281 0.56250
vt 0.63281 0.57813
vt 0.64844 0.57813
vt 0.64844 0.56250
vt 0.66406 0.56250
vt 0.66406 0.57813
vt 0.67969 0.57813
vt 0.67969 0.56250
vt 0.68750 0.56250
vt 0.68750 0.57813
vt 0.70313 0.57813
vt 0.70313 0.56250
vt 0.71094 0.56250
vt 0.71094 0.57813
vt 0.72656 0.57813
vt 0.72656 0.56250
vt 0.73438 0.56250
vt 0.73438 0.57813
vt 0.75000 0.57813
vt 0.75000 0.56250
vt 0.75781 0.56250
vt 0.75781 0.57813
vt 0.77344 0.57813
vt 0.77344 0.56250
vt 0.78125 0.56250
vt 0.78125 0.57813
vt 0.79688 0.57813
vt 0.79688 0.56250
vt 0.80469 0.56250
vt 0.80469 0.57813
vt 0.82031 0.57813
vt 0.82031 0.56250
vt 0.82813 0.56250
vt 0.82813 0.57813
vt 0.84375 0.57813
vt 0.84375 0.56250
vt 0.85156 0.56250
vt 0.85156 0.57813
vt 0.86719 0.57813
vt 0.86719 0.56250
vt 0.87500 0.56250
vt 0.87500 0.57813
vt 0.89063 0.57813
vt 0.89063 0.56250
vt 0.89844 0.56250
vt 0.89844 0.57813
vt 0.91406 0.57813
vt 0.91406 0.56250
vt 0.92188 0.56250
vt 0.92188 0.57813
vt 0.93750 0.57813
vt 0.93750 0.56250
vt 0.94531 0.56250
vt 0.94531 0.57813
vt 0.96094 0.57813
vt 0.96094 0.56250
vt 0.96875 0.56250
vt 0.96875 0.57813
vt 0.98438 0.57813
vt 0.98438 0.56250
vt 0.99219 0.56250
vt 0.99219 0.57813
vt 0.00781 0.62500
vt 0.00781 0.60938
vt 0.01563 0.60938
vt 0.01563 0.62500
vt 0.03125 0.62500
vt 0.03125 0.60938
vt 0.03906 0.60938
vt 0.03906 0.62500
vt 0.05469 0.62500
vt 0.05469 0.60938
vt 0.06250 0.60938
vt 0.06250 0.62500
vt 0.07813 0.62500
vt 0.07813 0.60938
vt 0.08594 0.60938
vt 0.08594 0.62500
vt 0.10156 0.62500
vt 0.10156 0.60938
vt 0.10938 0.60938
vt 0.10938 0.62500
vt 0.12500 0.62500
vt 0.12500 0.60938
vt 0.13281 0.60938
vt 0.13281 0.62500
vt 0.14844 0.62500
vt 0.14844 0.60938
vt 0.15625 0.60938
vt 0.15625 0.62500
vt 0.17188 0.62500
vt 0.17188 0.60938
vt 0.17969 0.60938
vt 0.17969 0.62500

g Matrix
usemtl Matrix_Material
f 128/1/6 19/2/6 22/3/6 133/4/6
f 96/5/5 7/6/5 6/7/5 97/8/5
f 191/9/5 192/10/5 8/11/5 95/12/5
f 8/13/4 7/14/4 96/15/4 95/16/4
f 95/17/1 96/18/1 97/19/1 98/20/1
f 5/21/2 6/22/2 7/23/2 8/24/2
f 127/25/1 128/26/1 129/27/1 130/28/1
f 130/29/3 129/30/3 151/31/3 135/32/3
f 12/33/3 58/34/3 18/35/3 17/36/3
f 21/37/2 22/38/2 23/39/2 24/40/2
f 17/41/2 18/42/2 19/43/2 20/44/2
f 131/45/1 132/46/1 133/47/1 134/48/1
f 142/49/4 152/50/4 132/51/4 131/52/4
f 24/53/4 23/54/4 57/55/4 13/56/4
f 181/57/3 97/58/3 6/59/3 182/60/3
f 99/61/1 100/62/1 101/63/1 102/64/1
f 1/65/2 2/66/2 3/67/2 4/68/2
f 114/69/3 113/70/3 34/71/3 33/72/3
f 48/73/4 47/74/4 124/75/4 123/76/4
f 32/77/4 31/78/4 108/79/4 107/80/4
f 106/81/3 105/82/3 26/83/3 25/84/3
f 122/85/3 121/86/3 42/87/3 41/88/3
f 134/89/4 188/90/4 46/91/4 45/92/4
f 126/93/4 125/94/4 38/95/4 37/96/4
f 138/97/4 137/98/4 100/99/4 99/100/4
f 107/101/1 108/102/1 109/103/1 110/104/1
f 103/105/1 104/106/1 105/107/1 106/108/1
f 111/109/1 112/110/1 113/111/1 114/112/1
f 119/113/1 120/114/1 121/115/1 122/116/1
f 115/117/1 116/118/1 117/119/1 118/120/1
f 20/121/3 183/122/3 104/123/3 103/124/3
f 28/125/3 27/126/3 112/127/3 111/128/3
f 36/129/3 35/130/3 120/131/3 119/132/3
f 139/133/1 140/134/1 141/135/1 142/136/1
f 135/137/1 136/138/1 137/139/1 138/140/1
f 16/141/3 15/142/3 2/143/3 1/144/3
f 4/145/4 3/146/4 10/147/4 9/148/4
f 110/149/4 109/150/4 187/151/4 21/152/4
f 118/153/4 117/154/4 30/155/4 29/156/4
f 44/157/3 43/158/3 184/159/3 127/160/3
f 102/161/3 101/162/3 140/163/3 139/164/3
f 123/165/1 124/166/1 125/167/1 126/168/1
f 37/169/2 38/170/2 39/171/2 40/172/2
f 33/173/2 34/174/2 35/175/2 36/176/2
f 45/177/2 46/178/2 47/179/2 48/180/2
f 41/181/2 42/182/2 43/183/2 44/184/2
f 13/185/2 14/186/2 15/187/2 16/188/2
f 9/189/2 10/190/2 11/191/2 12/192/2
f 29/193/2 30/194/2 31/195/2 32/196/2
f 25/197/2 26/198/2 27/199/2 28/200/2
f 98/201/5 165/202/5 168/203/5 193/204/5
f 80/205/5 5/206/5 194/207/5 77/208/5
f 36/209/6 111/210/6 114/211/6 33/212/6
f 112/213/5 35/214/5 34/215/5 113/216/5
f 116/217/5 39/218/5 38/219/5 117/220/5
f 185/221/4 39/222/4 116/223/4 186/224/4
f 44/225/6 119/226/6 122/227/6 41/228/6
f 48/229/6 123/230/6 126/231/6 45/232/6
f 108/233/5 31/234/5 30/235/5 109/236/5
f 52/237/3 68/238/3 160/239/3 59/240/3
f 155/241/3 71/242/3 163/243/3 143/244/3
f 32/245/6 107/246/6 110/247/6 29/248/6
f 28/249/6 103/250/6 106/251/6 25/252/6
f 104/253/5 27/254/5 26/255/5 105/256/5
f 124/257/5 47/258/5 46/259/5 125/260/5
f 66/261/4 161/262/4 67/263/4 53/264/4
f 120/265/5 43/266/5 42/267/5 121/268/5
f 150/269/4 164/270/4 70/271/4 156/272/4
f 192/273/5 153/274/5 158/275/5 194/276/5
f 62/277/5 191/278/5 193/279/5 63/280/5
f 166/281/5 79/282/5 78/283/5 167/284/5
f 143/285/1 144/286/1 145/287/1 146/288/1
f 174/289/6 87/290/6 86/291/6 175/292/6
f 147/293/1 148/294/1 149/295/1 150/296/1
f 76/297/4 171/298/4 50/299/4 49/300/4
f 146/301/4 145/302/4 90/303/4 169/304/4
f 53/305/2 54/306/2 55/307/2 56/308/2
f 49/309/2 50/310/2 51/311/2 52/312/2
f 170/313/3 93/314/3 148/315/3 147/316/3
f 56/317/3 55/318/3 172/319/3 73/320/3
f 62/321/3 61/322/3 154/323/3 153/324/3
f 188/325/4 133/326/4 22/327/4 187/328/4
f 183/329/3 19/330/3 128/331/3 184/332/3
f 136/333/1 151/334/1 152/335/1 141/336/1
f 14/337/2 57/338/2 58/339/2 11/340/2
f 151/341/6 129/342/6 132/343/6 152/344/6
f 18/345/6 58/346/6 57/347/6 23/348/6
f 10/349/5 3/350/5 2/351/5 15/352/5
f 4/353/6 9/354/6 16/355/6 1/356/6
f 138/357/6 99/358/6 102/359/6 139/360/6
f 100/361/5 137/362/5 140/363/5 101/364/5
f 158/365/4 157/366/4 78/367/4 77/368/4
f 168/369/4 167/370/4 64/371/4 63/372/4
f 80/373/3 79/374/3 182/375/3 5/376/3
f 98/377/3 181/378/3 166/379/3 165/380/3
f 63/381/2 64/382/2 65/383/2 66/384/2
f 153/385/1 154/386/1 91/387/1 155/388/1
f 59/389/2 60/390/2 61/391/2 62/392/2
f 156/393/1 92/394/1 157/395/1 158/396/1
f 180/397/4 179/398/4 82/399/4 81/400/4
f 163/401/6 71/402/6 70/403/6 164/404/6
f 160/405/6 68/406/6 67/407/6 161/408/6
f 54/409/2 67/410/2 68/411/2 51/412/2
f 69/413/2 70/414/2 71/415/2 72/416/2
f 159/417/1 160/418/1 161/419/1 162/420/1
f 144/421/1 163/422/1 164/423/1 149/424/1
f 165/425/1 166/426/1 167/427/1 168/428/1
f 50/429/5 171/430/5 172/431/5 55/432/5
f 77/433/2 78/434/2 79/435/2 80/436/2
f 73/437/2 74/438/2 75/439/2 76/440/2
f 169/441/1 89/442/1 94/443/1 170/444/1
f 88/445/4 87/446/4 186/447/4 189/448/4
f 90/449/5 145/450/5 148/451/5 93/452/5
f 176/453/4 175/454/4 86/455/4 85/456/4
f 190/457/4 185/458/4 174/459/4 173/460/4
f 155/461/5 143/462/5 146/463/5 169/464/5
f 170/465/5 147/466/5 150/467/5 156/468/5
f 40/469/6 177/470/6 180/471/6 37/472/6
f 178/473/6 173/474/6 176/475/6 179/476/6
f 142/477/6 131/478/6 134/479/6 157/480/6
f 154/481/6 127/482/6 130/483/6 135/484/6
f 24/485/6 13/486/6 64/487/6 21/488/6
f 20/489/6 61/490/6 12/491/6 17/492/6
f 88/493/6 83/494/6 82/495/6 85/496/6
f 84/497/6 115/498/6 118/499/6 81/500/6
f 177/501/1 178/502/1 179/503/1 180/504/1
f 84/505/4 83/506/4 189/507/4 115/508/4
f 40/509/4 190/510/4 178/511/4 177/512/4
f 60/513/1 159/514/1 171/515/1 75/516/1
f 74/517/1 172/518/1 162/519/1 65/520/1
f 173/521/1 174/522/1 175/523/1 176/524/1
f 81/525/2 82/526/2 83/527/2 84/528/2
f 52/529/5 59/530/5 76/531/5 49/532/5
f 56/533/5 73/534/5 66/535/5 53/536/5
f 92/537/2 69/538/2 93/539/2 94/540/2
f 89/541/2 90/542/2 72/543/2 91/544/2
f 85/545/2 86/546/2 87/547/2 88/548/2
